<?xml version="1.0" encoding="UTF-8"?>
<!DOCTYPE svg PUBLIC "-//W3C//DTD SVG 1.1//EN" "http://www.w3.org/Graphics/SVG/1.1/DTD/svg11.dtd">
<svg xmlns="http://www.w3.org/2000/svg" version="1.1" width="115px" height="159px" style="shape-rendering:geometricPrecision; text-rendering:geometricPrecision; image-rendering:optimizeQuality; fill-rule:evenodd; clip-rule:evenodd" xmlns:xlink="http://www.w3.org/1999/xlink">
<g><path style="opacity:1" fill="#fdfdfd" d="M -0.5,-0.5 C 15.5,-0.5 31.5,-0.5 47.5,-0.5C 20.4892,6.17642 4.48923,23.1764 -0.5,50.5C -0.5,33.5 -0.5,16.5 -0.5,-0.5 Z"/></g>
<g><path style="opacity:1" fill="#097d7b" d="M 47.5,-0.5 C 53.1667,-0.5 58.8333,-0.5 64.5,-0.5C 97.7366,8.95677 112.903,30.9568 110,65.5C 108.066,75.701 103.732,84.701 97,92.5C 77.9341,110.618 64.4341,132.285 56.5,157.5C 50.6236,144.414 44.1236,131.414 37,118.5C 28.0877,106.25 18.421,94.5834 8,83.5C 3.83688,75.8369 1.00355,67.8369 -0.5,59.5C -0.5,56.5 -0.5,53.5 -0.5,50.5C 4.48923,23.1764 20.4892,6.17642 47.5,-0.5 Z"/></g>
<g><path style="opacity:1" fill="#fdfefe" d="M 64.5,-0.5 C 81.1667,-0.5 97.8333,-0.5 114.5,-0.5C 114.5,52.5 114.5,105.5 114.5,158.5C 95.1667,158.5 75.8333,158.5 56.5,158.5C 56.5,158.167 56.5,157.833 56.5,157.5C 64.4341,132.285 77.9341,110.618 97,92.5C 103.732,84.701 108.066,75.701 110,65.5C 112.903,30.9568 97.7366,8.95677 64.5,-0.5 Z"/></g>
<g><path style="opacity:1" fill="#fbfcfc" d="M 47.5,14.5 C 70.181,12.3693 86.0144,21.7027 95,42.5C 99.3944,60.6487 94.5611,75.8153 80.5,88C 69.8499,95.0611 58.1832,97.3944 45.5,95C 23.9883,87.4853 13.8216,72.3186 15,49.5C 18.4601,30.8767 29.2934,19.2101 47.5,14.5 Z"/></g>
<g><path style="opacity:1" fill="#147f7d" d="M 39.5,29.5 C 50.1719,29.3335 60.8385,29.5002 71.5,30C 75.0709,35.3128 77.4042,41.1461 78.5,47.5C 80.7224,47.178 82.5557,47.8446 84,49.5C 84.6667,55.5 84.6667,61.5 84,67.5C 83.0718,70.0352 81.2385,71.0352 78.5,70.5C 78.5,72.5 78.5,74.5 78.5,76.5C 75.1667,76.5 71.8333,76.5 68.5,76.5C 68.5,74.5 68.5,72.5 68.5,70.5C 60.1667,70.5 51.8333,70.5 43.5,70.5C 43.5,72.5 43.5,74.5 43.5,76.5C 40.1667,76.5 36.8333,76.5 33.5,76.5C 33.5,74.5 33.5,72.5 33.5,70.5C 31.2776,70.822 29.4443,70.1554 28,68.5C 27.3333,61.8333 27.3333,55.1667 28,48.5C 29.3561,47.6198 30.8561,47.2865 32.5,47.5C 33.6738,40.9666 36.0072,34.9666 39.5,29.5 Z"/></g>
<g><path style="opacity:1" fill="#fafcfc" d="M 70.5,45.5 C 60.5,46.8333 50.5,46.8333 40.5,45.5C 40.8042,42.4208 41.8042,39.5875 43.5,37C 51.5,36.3333 59.5,36.3333 67.5,37C 68.9292,39.6897 69.9292,42.5231 70.5,45.5 Z"/></g>
<g><path style="opacity:1" fill="#b8d0d0" d="M 40.5,45.5 C 50.5,46.8333 60.5,46.8333 70.5,45.5C 71.0431,45.56 71.3764,45.8933 71.5,46.5C 60.8333,47.8333 50.1667,47.8333 39.5,46.5C 39.6236,45.8933 39.9569,45.56 40.5,45.5 Z"/></g>
<g><path style="opacity:1" fill="#f8fafa" d="M 34.5,54.5 C 36.604,54.2011 38.604,54.5344 40.5,55.5C 41.8774,59.9595 40.2107,61.7928 35.5,61C 33.3162,59.1024 32.9829,56.9358 34.5,54.5 Z"/></g>
<g><path style="opacity:1" fill="#f1f5f6" d="M 71.5,53.5 C 77.4877,53.664 78.821,56.164 75.5,61C 69.4034,61.1475 68.0701,58.6475 71.5,53.5 Z"/></g>
<g><path style="opacity:1" fill="#fefefe" d="M -0.5,59.5 C 1.00355,67.8369 3.83688,75.8369 8,83.5C 18.421,94.5834 28.0877,106.25 37,118.5C 44.1236,131.414 50.6236,144.414 56.5,157.5C 56.5,157.833 56.5,158.167 56.5,158.5C 37.5,158.5 18.5,158.5 -0.5,158.5C -0.5,125.5 -0.5,92.5 -0.5,59.5 Z"/></g>
</svg>
